<?xml version="1.0" encoding="UTF-8" standalone="no"?>
<svg
   xmlns:dc="http://purl.org/dc/elements/1.1/"
   xmlns:cc="http://creativecommons.org/ns#"
   xmlns:rdf="http://www.w3.org/1999/02/22-rdf-syntax-ns#"
   xmlns:svg="http://www.w3.org/2000/svg"
   xmlns="http://www.w3.org/2000/svg"
   xmlns:sodipodi="http://sodipodi.sourceforge.net/DTD/sodipodi-0.dtd"
   xmlns:inkscape="http://www.inkscape.org/namespaces/inkscape"
   height="77.199997"
   width="77.199997"
   version="1.1"
   x="0px"
   y="0px"
   viewBox="0 0 77.199997 77.199997"
   xml:space="preserve"
   id="svg4"
   sodipodi:docname="delete.svg"
   inkscape:version="0.92.3 (2405546, 2018-03-11)"><metadata
     id="metadata10"><rdf:RDF><cc:Work
         rdf:about=""><dc:format>image/svg+xml</dc:format><dc:type
           rdf:resource="http://purl.org/dc/dcmitype/StillImage" /><dc:title /></cc:Work></rdf:RDF></metadata><defs
     id="defs8" /><sodipodi:namedview
     pagecolor="#ffffff"
     bordercolor="#666666"
     borderopacity="1"
     objecttolerance="10"
     gridtolerance="10"
     guidetolerance="10"
     inkscape:pageopacity="0"
     inkscape:pageshadow="2"
     inkscape:window-width="1920"
     inkscape:window-height="1025"
     id="namedview6"
     showgrid="false"
     fit-margin-top="0"
     fit-margin-left="0"
     fit-margin-right="0"
     fit-margin-bottom="0"
     inkscape:zoom="2.36"
     inkscape:cx="-90.637288"
     inkscape:cy="38.6"
     inkscape:window-x="0"
     inkscape:window-y="27"
     inkscape:window-maximized="1"
     inkscape:current-layer="svg4" /><path
     d="M 77.2,38.6 C 77.2,17.3 59.9,0 38.6,0 17.3,0 0,17.3 0,38.6 0,59.9 17.3,77.2 38.6,77.2 59.9,77.2 77.2,59.9 77.2,38.6 Z"
     id="path2"
     inkscape:connector-curvature="0"
     sodipodi:nodetypes="sssss" /><path
     style="fill:#ffffff;fill-opacity:1;stroke:none;stroke-width:11.5933609;stroke-miterlimit:4;stroke-dasharray:none;stroke-opacity:1"
     d="m 21.500661,15.322001 c -1.557857,0 -3.115716,0.616463 -4.34751,1.848257 -2.463589,2.463589 -2.463589,6.231432 0,8.695021 L 29.90415,38.616277 17.153151,51.370108 c -2.463589,2.463589 -2.463589,6.231431 0,8.69502 1.159336,1.159336 2.753423,1.737871 4.34751,1.737871 1.594088,0 3.188175,-0.578535 4.347511,-1.737871 L 38.59917,47.311297 51.353,60.065128 c 1.159336,1.159336 2.753423,1.737871 4.347511,1.737871 1.594087,0 3.188174,-0.578535 4.34751,-1.737871 2.463589,-2.463589 2.463589,-6.231431 0,-8.69502 L 47.294191,38.616277 60.048021,25.865279 c 2.463589,-2.463589 2.463589,-6.231432 0,-8.695021 -2.463589,-2.463589 -6.231432,-2.463589 -8.695021,0 L 38.59917,29.921257 25.848172,17.170258 c -1.231794,-1.231794 -2.789653,-1.848257 -4.347511,-1.848257 z"
     id="rect817"
     inkscape:connector-curvature="0" /></svg>