<?xml version="1.0" encoding="UTF-8" standalone="no"?>
<svg
   xmlns:dc="http://purl.org/dc/elements/1.1/"
   xmlns:cc="http://creativecommons.org/ns#"
   xmlns:rdf="http://www.w3.org/1999/02/22-rdf-syntax-ns#"
   xmlns:svg="http://www.w3.org/2000/svg"
   xmlns="http://www.w3.org/2000/svg"
   xmlns:sodipodi="http://sodipodi.sourceforge.net/DTD/sodipodi-0.dtd"
   xmlns:inkscape="http://www.inkscape.org/namespaces/inkscape"
   height="100px"
   width="100px"
   fill="#000000"
   version="1.1"
   x="0px"
   y="0px"
   viewBox="0 0 32 32"
   enable-background="new 0 0 32 32"
   xml:space="preserve"
   id="svg10"
   sodipodi:docname="staticpub.svg"
   inkscape:version="0.92.3 (2405546, 2018-03-11)"><metadata
     id="metadata16"><rdf:RDF><cc:Work
         rdf:about=""><dc:format>image/svg+xml</dc:format><dc:type
           rdf:resource="http://purl.org/dc/dcmitype/StillImage" /></cc:Work></rdf:RDF></metadata><defs
     id="defs14" /><sodipodi:namedview
     pagecolor="#ffffff"
     bordercolor="#666666"
     borderopacity="1"
     objecttolerance="10"
     gridtolerance="10"
     guidetolerance="10"
     inkscape:pageopacity="0"
     inkscape:pageshadow="2"
     inkscape:window-width="1920"
     inkscape:window-height="1025"
     id="namedview12"
     showgrid="false"
     inkscape:zoom="6.675088"
     inkscape:cx="54.891083"
     inkscape:cy="42.351328"
     inkscape:window-x="0"
     inkscape:window-y="27"
     inkscape:window-maximized="1"
     inkscape:current-layer="svg10" /><path
     style="stroke-width:2.84251428"
     d="M 7.3613281 32.945312 L 7.3613281 89.794922 C 7.3613281 91.358303 8.641695 92.638672 10.205078 92.638672 L 89.794922 92.638672 C 91.358303 92.638672 92.638672 91.358303 92.638672 89.794922 L 92.638672 32.945312 L 86.953125 32.945312 L 13.046875 32.945312 L 7.3613281 32.945312 z M 68.255859 45.738281 C 69.163853 45.663611 70.089324 46.034715 70.693359 46.816406 L 81.835938 60.773438 C 82.09175 61.02925 82.318812 61.341413 82.460938 61.710938 C 82.546219 61.8815 82.604375 62.052106 82.632812 62.222656 C 82.66125 62.393219 82.689453 62.592041 82.689453 62.791016 C 82.689453 62.990016 82.66125 63.188825 82.632812 63.359375 C 82.604375 63.529938 82.546219 63.700544 82.460938 63.871094 C 82.318812 64.240619 82.091762 64.552769 81.835938 64.808594 L 70.693359 78.765625 C 69.726903 80.016331 67.937125 80.215584 66.714844 79.220703 C 65.464137 78.254253 65.264891 76.464469 66.259766 75.242188 L 73.933594 65.634766 L 48.578125 65.634766 C 47.014744 65.634766 45.736328 64.354403 45.736328 62.791016 C 45.736328 61.227634 47.014744 59.949219 48.578125 59.949219 L 73.933594 59.949219 L 66.259766 50.341797 C 65.264891 49.119516 65.492563 47.356209 66.714844 46.361328 C 67.173199 45.988248 67.711063 45.783083 68.255859 45.738281 z "
     transform="scale(0.32)"
     id="path11" /><path
     d="m 27.169944,8.7231638 h 2.09209 L 25.887402,2.8107344 C 25.723672,2.528757 25.423502,2.3559322 25.096046,2.3559322 H 6.9039548 c -0.3274576,0 -0.6276272,0.1728248 -0.791356,0.4548022 L 2.7379661,8.7231638 h 2.0920904 z"
     id="path4"
     inkscape:connector-curvature="0"
     style="stroke-width:0.90960455" /></svg>