<?xml version="1.0" encoding="UTF-8" standalone="no"?>
<svg
   xmlns:dc="http://purl.org/dc/elements/1.1/"
   xmlns:cc="http://creativecommons.org/ns#"
   xmlns:rdf="http://www.w3.org/1999/02/22-rdf-syntax-ns#"
   xmlns:svg="http://www.w3.org/2000/svg"
   xmlns="http://www.w3.org/2000/svg"
   xmlns:sodipodi="http://sodipodi.sourceforge.net/DTD/sodipodi-0.dtd"
   xmlns:inkscape="http://www.inkscape.org/namespaces/inkscape"
   height="100px"
   width="100px"
   fill="#000000"
   version="1.1"
   x="0px"
   y="0px"
   viewBox="0 0 70 70"
   enable-background="new 0 0 70 70"
   xml:space="preserve"
   id="svg10"
   sodipodi:docname="type-woost-extensions-staticpub-destination-Destination.svg"
   inkscape:version="0.92.3 (2405546, 2018-03-11)"><metadata
     id="metadata16"><rdf:RDF><cc:Work
         rdf:about=""><dc:format>image/svg+xml</dc:format><dc:type
           rdf:resource="http://purl.org/dc/dcmitype/StillImage" /></cc:Work></rdf:RDF></metadata><defs
     id="defs14" /><sodipodi:namedview
     pagecolor="#ffffff"
     bordercolor="#666666"
     borderopacity="1"
     objecttolerance="10"
     gridtolerance="10"
     guidetolerance="10"
     inkscape:pageopacity="0"
     inkscape:pageshadow="2"
     inkscape:window-width="1920"
     inkscape:window-height="1025"
     id="namedview12"
     showgrid="false"
     inkscape:zoom="2.36"
     inkscape:cx="0.63559322"
     inkscape:cy="50"
     inkscape:window-x="0"
     inkscape:window-y="27"
     inkscape:window-maximized="1"
     inkscape:current-layer="svg10" /><path
     inkscape:connector-curvature="0"
     id="path2"
     d="m 61.786,49.614 c -0.063,0.636 -0.142,1.281 -0.219,1.905 -0.034,0.262 -0.065,0.526 -0.096,0.79 -0.127,1.059 -0.486,1.826 -1.096,2.349 -0.224,0.192 -0.488,0.354 -0.788,0.479 -1.203,0.5 -2.389,0.297 -3.432,-0.587 -1.594,-1.353 -1.835,-3.389 -0.586,-4.946 0.131,-0.165 0.292,-0.328 0.51,-0.514 0.141,-0.12 0.288,-0.237 0.433,-0.351 0.145,-0.114 0.298,-0.235 0.444,-0.36 l 0.031,-0.027 c 0.008,-0.007 0.028,-0.019 0.047,-0.03 0.027,-0.013 0.057,-0.029 0.085,-0.053 0.319,-0.229 0.493,-0.518 0.499,-0.824 0.004,-0.21 -0.246,-0.502 -0.126,-0.701 0.109,0.029 0.192,0.11 0.293,0.154 0.254,0.11 0.552,0.161 0.832,0.124 0.176,-0.023 0.345,-0.083 0.486,-0.192 0.042,-0.032 0.086,-0.065 0.137,-0.076 0.22,-0.047 0.136,0.299 0.155,0.416 0.058,0.363 -0.053,0.682 -0.367,1.023 -0.069,0.073 -0.135,0.149 -0.203,0.222 -0.585,0.632 -1.194,1.288 -1.522,2.146 -0.2,0.531 -0.36,1.156 0,1.781 0.315,0.544 0.819,0.798 1.418,0.722 0.625,-0.079 1.098,-0.463 1.35,-1.111 0.071,-0.183 0.143,-0.365 0.213,-0.551 0.187,-0.485 0.378,-0.988 0.598,-1.462 0.088,-0.192 0.242,-0.392 0.438,-0.559 0.026,-0.021 0.056,-0.043 0.084,-0.067 0.067,-0.052 0.257,-0.063 0.33,-0.034 0.032,0.05 0.064,0.206 0.052,0.334 z" /><path
     inkscape:connector-curvature="0"
     id="path4"
     d="m 63.545,40.924 c -0.058,-0.207 -0.151,-0.403 -0.264,-0.585 -0.077,-0.123 -0.133,-0.204 -0.222,-0.246 -0.052,-0.025 -0.114,-0.037 -0.197,-0.037 h -8.811 c -0.14,0 -0.351,-0.039 -0.46,0.05 -0.044,0.037 -0.078,0.103 -0.11,0.15 -0.111,0.167 -0.206,0.346 -0.273,0.534 -0.196,0.544 -0.113,1.114 0.269,1.555 0.049,0.057 0.102,0.11 0.157,0.161 0.128,0.13 0.257,0.259 0.385,0.389 0.306,0.311 0.614,0.622 0.921,0.932 0.369,0.373 0.738,0.747 1.106,1.12 0.314,0.318 0.629,0.636 0.943,0.954 0.221,0.224 0.432,0.487 0.73,0.616 0.347,0.15 0.742,0.169 1.104,0.068 0.41,-0.116 0.685,-0.47 0.977,-0.765 0.337,-0.341 0.674,-0.682 1.011,-1.024 0.379,-0.383 0.757,-0.765 1.136,-1.148 0.291,-0.296 0.584,-0.591 0.875,-0.886 0.085,-0.086 0.169,-0.171 0.254,-0.257 0.45,-0.415 0.637,-0.989 0.469,-1.581 z m -7.645,2.701 -1.127,-1.139 1.613,-1.613 h 2.266 z m 2.166,2.199 c -0.035,-0.036 -0.069,-0.072 -0.106,-0.11 -0.044,-0.045 -0.086,-0.091 -0.129,-0.135 l -0.888,-0.899 3.808,-3.808 h 2.266 z" /><path
     inkscape:connector-curvature="0"
     id="path6"
     d="M 69.72,15.503 30.508,4.954 V 4.886 H 30.257 L 30.252,4.885 V 4.886 H 15.245 V 4.892 L 15.241,4.886 0.17,15.503 0.174,15.509 v 8.113 h 15.071 v 28.17 l -3.614,3.847 v 9.476 H 34.114 V 55.589 L 30.508,51.792 V 7.006 l 31.578,8.497 H 33.835 v 8.12 h 20.559 v 15.368 h 1.699 V 23.623 h 4.339 v 15.368 h 1.699 V 23.623 h 7.698 v -7.82 -0.269 -0.031 z m -54.475,0 H 3.612 L 15.245,7.308 Z m 3.672,-4.294 6.037,3.634 -6.037,3.203 z m 0,10.617 6.037,3.634 -6.037,3.203 z m 0,10.617 6.037,3.634 -6.037,3.203 z m 0,10.04 6.037,3.633 -6.037,3.203 z m 7.911,9.309 h -7.911 v -0.116 l 7.66,-4.064 0.086,-0.051 c 0.061,-0.04 0.11,-0.093 0.165,-0.14 z m 0,-6.942 c -0.029,-0.025 -0.051,-0.056 -0.082,-0.079 l -6.432,-3.876 6.263,-3.323 0.087,-0.052 c 0.061,-0.04 0.11,-0.093 0.164,-0.14 z m 0,-10.04 c -0.029,-0.025 -0.051,-0.056 -0.082,-0.079 l -6.941,-4.182 6.773,-3.593 0.087,-0.052 c 0.061,-0.04 0.11,-0.093 0.164,-0.14 v 8.046 z m 0,-10.617 c -0.029,-0.025 -0.051,-0.056 -0.082,-0.079 l -6.941,-4.182 6.773,-3.593 0.087,-0.052 c 0.061,-0.04 0.11,-0.093 0.164,-0.14 v 8.046 z m 0,-10.617 C 26.799,13.551 26.777,13.52 26.746,13.497 L 18.917,8.78 V 8.633 h 7.911 z" /></svg>